<?xml version="1.0" encoding="utf-8"?>
<!-- Generator: Adobe Illustrator 25.0.0, SVG Export Plug-In . SVG Version: 6.00 Build 0)  -->
<svg version="1.1" id="master-artboard" xmlns="http://www.w3.org/2000/svg" xmlns:xlink="http://www.w3.org/1999/xlink" x="0px"
	 y="0px" viewBox="0 0 275.5 267.1" style="enable-background:new 0 0 275.5 267.1;" xml:space="preserve">
<style type="text/css">
	.st0{fill:#1D1D1B;}
</style>
<g transform="matrix(1.4954166412353518, 0, 0, 1.4954166412353518, -11.029827117919808, -23.150546462949194)">
	<path class="st0" d="M93.7,163.9c-4-4.7-7.7-9.5-11.5-14.1c-1.9-2.3-3.8-4.6-5.7-6.8c-1.9-2.2-3.9-4.3-5.9-6.3c-1-1-2.1-2-3.1-2.9
		l-1.7-1.5l-1.6-1.3c-2.2-1.8-4.4-3.6-6.7-5.3l-7.1-5.2c-2.4-1.7-4.9-3.5-7.3-5.3c-2.5-1.8-4.9-3.7-7.4-5.7c-1.2-1-2.4-2-3.7-3.1
		c-0.6-0.5-1.2-1.1-1.8-1.6l-0.9-0.8l-0.5-0.4l-0.5-0.5l-0.8-0.8l-0.9-0.9c-0.7-0.7-1.2-1.3-1.8-1.9c-1.2-1.3-2.3-2.6-3.4-3.9
		c-2.2-2.7-4.2-5.5-6-8.6c-1.8-3.1-3.4-6.3-4.7-9.7C10,75.6,9.5,73.8,9,72s-0.9-3.6-1.1-5.5c-0.6-3.8-0.7-7.7-0.2-11.6
		C7.9,53,8.2,51,8.8,49.1c0.2-1,0.5-1.9,0.8-2.8l0.5-1.4l0.2-0.7l0.1-0.3v-0.1l0.1-0.1l0.1-0.3l0.4-1.1l0.7-1.5
		c0.2-0.5,0.5-0.9,0.7-1.4c0.2-0.4,0.5-0.9,0.7-1.3c1-1.7,2.1-3.3,3.3-4.8c2.4-3.1,5.3-5.8,8.4-8c6.3-4.5,13.9-6.9,21.4-7.1
		c3.8-0.1,7.5,0.4,11,1.4c0.9,0.3,1.8,0.5,2.6,0.9l0.6,0.2l0.3,0.1l0.1,0.1l0.3,0.1l1,0.5c0.7,0.3,1.7,0.8,2.5,1.1
		c0.8,0.4,1.5,0.8,2.3,1.2c3,1.7,5.8,3.8,8.3,6.2s4.7,4.9,6.5,7.7c1.9,2.7,3.5,5.6,4.8,8.5c1.4,2.9,2.5,5.9,3.5,8.9c1,3,1.9,6,2.7,9
		l0.6,2.3l0.5,2.2l1.1,4.5c1.4,5.9,2.8,11.8,4.3,17.6c1.5,5.9,3,11.7,4.6,17.6l-10.3,0.2c0.6-6.7,1.1-13.4,1.6-20l0.7-10
		c0.3-3.4,0.6-6.8,1-10.3c0.8-7,2.2-14.3,5.1-21.6c1.5-3.7,3.4-7.3,5.8-10.7c2.4-3.4,5.2-6.5,8.5-9.3c6.5-5.6,14.9-9.5,23.7-10.7
		c8.8-1.2,18,0.1,26.2,3.9c8.2,3.8,15.4,10.4,19.9,18.6c2.2,4.1,3.8,8.5,4.7,13c0.5,2.2,0.7,4.5,0.8,6.7c0,1.1,0.1,2.2,0.1,3.3v0.4
		V62v0.4V63v0.6v0.7l-0.2,1.8c-0.1,0.6-0.1,1.1-0.2,1.6c-0.1,1.1-0.3,2.1-0.5,3.2c-0.4,2.1-1,4.2-1.7,6.3c-1.3,4.1-3.2,8-5.3,11.5
		c-4.3,7.1-9.6,12.9-15.1,17.8c-1.4,1.2-2.8,2.4-4.2,3.6l-2.1,1.7l-1.9,1.5l-3.9,3.1l-1,0.8l-0.9,0.7l-1.8,1.5
		c-2.4,1.9-4.8,4.1-7.2,6.2c-2.3,2.2-4.7,4.3-7,6.5c-4.6,4.4-9,9.1-13.3,13.9c-4.3,4.8-8.3,9.9-12.3,15.1c-4,5.2-7.7,10.6-11.4,16.1
		c-3.7,5.5-7.2,11.2-10.8,16.9l-2.2-0.9c1.6-6.6,3.4-13.2,5.7-19.6c2.3-6.4,4.8-12.8,7.8-19s6.2-12.4,9.9-18.2l1.4-2.2l1.4-2.2
		c1-1.4,1.9-2.9,2.9-4.3c2-2.8,4.1-5.7,6.3-8.4c2.1-2.8,4.4-5.4,6.7-8.1c2.4-2.6,4.7-5.2,7.2-7.8l1.9-1.9l0.9-1l0.9-0.9l3.6-3.5
		l1.9-1.8l1.7-1.6c1.1-1.1,2.2-2.1,3.2-3.2c4.1-4.3,7.5-8.8,9.9-13.3c1.2-2.3,2.1-4.5,2.8-6.8c0.3-1.1,0.6-2.3,0.8-3.4
		c0.1-0.6,0.2-1.1,0.3-1.7c0-0.3,0.1-0.6,0.1-0.8l0.1-0.7c0-0.1,0-0.3,0-0.5v-0.6v-0.6c0,0.1,0-0.3,0,0.2v-0.1v-0.1v-0.2
		c0-0.6,0-1.1,0-1.7c-0.1-1.1-0.2-2.2-0.4-3.2c-0.4-2.1-1-4.1-1.9-5.9c-0.9-1.8-2.1-3.5-3.5-5s-3.1-2.8-5-3.8
		c-3.8-2.1-8.3-3.2-12.8-2.9s-8.9,1.8-12.8,4.7c-1.9,1.4-3.8,3.1-5.4,5.1c-1.6,1.9-3.1,4.1-4.4,6.5c-2.7,4.8-4.6,10.5-6.4,16.7
		c-0.9,3.1-1.7,6.2-2.5,9.5l-2.4,9.7c-1.6,6.5-3.2,13-4.8,19.5l-6.8,28.6l-3.5-28.5c-0.7-6-1.6-12-2.5-17.9
		c-0.9-5.9-2-11.9-3.2-17.7c-0.3-1.5-0.6-2.9-1-4.4L86.2,68l-0.5-2.1c-0.7-2.8-1.6-5.6-2.6-8.3c-1-2.7-2.2-5.3-3.6-7.8
		c-1.4-2.4-3-4.8-4.8-6.8c-3.6-4.1-8-7.2-12.9-8.8c-0.6-0.2-1.2-0.4-1.8-0.6c-0.6-0.2-1.1-0.3-1.8-0.4L57.4,33l-0.3-0.1H57
		c-0.1,0,0.2,0.1,0.1,0H57l-0.5-0.1c-0.6-0.1-1.2-0.1-1.8-0.2c-2.4-0.2-4.7,0-7,0.5c-4.5,1-8.5,3.4-11.5,6.5
		c-0.8,0.8-1.5,1.6-2.1,2.4c-0.7,0.9-1.2,1.8-1.8,2.7c-0.5,0.9-1,1.9-1.5,2.8c-0.1,0.2-0.2,0.5-0.3,0.7s-0.2,0.5-0.3,0.7L30,49.5
		l-0.4,1.1l-0.1,0.3V51v0.1c0.2-0.4,0-0.1,0.1-0.2l-0.1,0.4l-0.2,0.8c-0.1,0.5-0.2,1-0.3,1.6c-0.2,1-0.3,2.1-0.4,3.1
		c-0.1,2.1,0,4.3,0.3,6.5c0.6,4.4,2.2,9,4.6,13.4c1.2,2.2,2.5,4.4,4,6.5c0.7,1.1,1.5,2.1,2.3,3.1l1.2,1.5c0.2,0.2,0.4,0.4,0.6,0.7
		l0.8,0.8l0.3,0.3l0.4,0.4l0.7,0.8c0.5,0.5,1,1,1.5,1.5c1,1,2,2,3,3c2,2,4.1,4,6.3,6.1c2.2,2,4.4,4.1,6.6,6.2
		c2.2,2.1,4.5,4.3,6.6,6.6c2.2,2.3,4.3,4.6,6.4,7.1l1.6,1.9l1.4,1.8l0.3,0.5l0.2,0.2l0.1,0.1v0.1c0,0.1,0,0,0.1,0.1l0.7,1
		c0.5,0.7,0.9,1.3,1.4,2c3.6,5.3,6.5,11,9,16.6c2.5,5.7,4.7,11.4,6.7,17.1L93.7,163.9z"/>
</g>
</svg>
